<svg xmlns="http://www.w3.org/2000/svg" width="16" height="16" fill="none" viewBox="0 0 16 16">
  <path fill="#26FFE0" d="M8 0C6.5.02 5.156.385 3.969 1.094a7.925 7.925 0 0 0-2.875 2.875C.385 5.156.02 6.5 0 8c.02 1.5.385 2.844 1.094 4.031a7.925 7.925 0 0 0 2.875 2.875C5.156 15.615 6.5 15.98 8 16c1.5-.02 2.844-.385 4.031-1.094a7.924 7.924 0 0 0 2.875-2.875C15.615 10.844 15.98 9.5 16 8c-.02-1.5-.385-2.844-1.094-4.031a7.925 7.925 0 0 0-2.875-2.875C10.844.385 9.5.02 8 0Zm3.625 6.625-4 4a.919.919 0 0 1-.625.25.919.919 0 0 1-.625-.25l-2-2A.919.919 0 0 1 4.125 8c0-.23.083-.438.25-.625A.919.919 0 0 1 5 7.125c.23 0 .438.083.625.25L7 8.75l3.375-3.375a.919.919 0 0 1 .625-.25c.23 0 .438.083.625.25.167.188.25.396.25.625 0 .23-.083.438-.25.625Z"/>
</svg>
