<svg xmlns="http://www.w3.org/2000/svg" width="16" height="16" fill="none" viewBox="0 0 16 16">
  <path fill="#26FFE0" d="M15 5.781V1c0-.167-.073-.365-.219-.594C14.635.156 14.375.021 14 0a.994.994 0 0 0-.625.219l-2.656 2.125C9.344 3.427 7.77 3.979 6 4H2c-.563.02-1.031.219-1.406.594S.02 5.437 0 6v3c.02.563.219 1.031.594 1.406S1.438 10.98 2 11h.094c-.104.813-.063 1.563.125 2.25.187.667.385 1.208.594 1.625.229.417.364.656.406.719.208.27.469.406.781.406h2c.438-.02.75-.26.938-.719.145-.479.072-.906-.22-1.281-.083-.042-.28-.365-.593-.969-.333-.583-.448-1.26-.344-2.031H6c1.77.02 3.333.573 4.688 1.656l2.687 2.094c.188.167.396.25.625.25.375-.02.635-.156.781-.406.146-.23.219-.427.219-.594V9.219c.625-.375.958-.948 1-1.719-.042-.792-.375-1.365-1-1.719Zm-2 6.125-1.031-.812A9.336 9.336 0 0 0 9.156 9.53 9.562 9.562 0 0 0 6 9V6a9.562 9.562 0 0 0 3.156-.531 9.338 9.338 0 0 0 2.813-1.563L13 3.094v8.812Z"/>
</svg>
