<svg xmlns="http://www.w3.org/2000/svg" width="18" height="16" fill="none" viewBox="0 0 18 16">
  <path fill="#26FFE0" d="M8 4.094 5.656.25A.423.423 0 0 0 5.25 0H1.5c-.208.02-.354.115-.438.281a.482.482 0 0 0 .032.5L4.562 5.75C5.521 4.875 6.668 4.323 8 4.094ZM9 5c-1.563.042-2.854.583-3.875 1.625C4.083 7.645 3.542 8.938 3.5 10.5c.042 1.563.583 2.854 1.625 3.875C6.145 15.417 7.438 15.958 9 16c1.563-.042 2.854-.583 3.875-1.625 1.042-1.02 1.583-2.313 1.625-3.875-.042-1.563-.583-2.854-1.625-3.875C11.855 5.583 10.562 5.042 9 5Zm2.906 4.906-1.187 1.156.25 1.657c.02.146-.021.26-.125.344-.104.083-.23.093-.375.03L9 12.314l-1.469.78c-.146.063-.27.053-.375-.03A.416.416 0 0 1 7 12.719l.281-1.656-1.187-1.157c-.104-.104-.125-.229-.063-.375.042-.125.136-.198.282-.219l1.625-.25.75-1.468c.062-.146.166-.219.312-.219s.25.073.313.219l.75 1.468 1.624.25c.146.021.24.094.282.22.062.145.041.27-.063.374ZM16.47 0h-3.72a.49.49 0 0 0-.438.25L10 4.063c1.333.229 2.48.78 3.438 1.656L16.905.75c.104-.167.115-.323.032-.469-.084-.166-.24-.26-.47-.281Z"/>
</svg>
