<svg xmlns="http://www.w3.org/2000/svg" width="16" height="16" fill="none" viewBox="0 0 16 16">
  <path fill="#26FFE0" d="M8 0C6.5.02 5.156.385 3.969 1.094a7.925 7.925 0 0 0-2.875 2.875C.385 5.156.02 6.5 0 8c.02 1.5.385 2.844 1.094 4.031a7.925 7.925 0 0 0 2.875 2.875C5.156 15.615 6.5 15.98 8 16c1.5-.02 2.844-.385 4.031-1.094a7.924 7.924 0 0 0 2.875-2.875C15.615 10.844 15.98 9.5 16 8c-.02-1.5-.385-2.844-1.094-4.031a7.925 7.925 0 0 0-2.875-2.875C10.844.385 9.5.02 8 0Zm0 12.5a.974.974 0 0 1-.719-.281A.974.974 0 0 1 7 11.5c.042-.604.375-.938 1-1 .27 0 .5.094.688.281A.924.924 0 0 1 9 11.5a.924.924 0 0 1-.313.719A.936.936 0 0 1 8 12.5Zm2.156-4.438-1.406.876V9c-.042.458-.292.708-.75.75-.458-.042-.708-.292-.75-.75v-.5c0-.27.125-.49.375-.656L9.406 6.78a.629.629 0 0 0 .344-.593c-.042-.417-.281-.646-.719-.688H7.437c-.437.042-.666.27-.687.688-.042.458-.292.708-.75.75-.458-.042-.708-.292-.75-.75.02-.625.23-1.146.625-1.563.417-.396.927-.604 1.531-.625H9c.646.02 1.177.23 1.594.625.416.417.635.938.656 1.563-.02.791-.385 1.416-1.094 1.875Z"/>
</svg>
