<svg xmlns="http://www.w3.org/2000/svg" width="19" height="14" fill="none" viewBox="0 0 19 14">
  <path fill="#262626" d="m15.605 1.188-.03-.032A15.946 15.946 0 0 0 11.824 0c-.022 0-.043.01-.063.031-.167.313-.323.636-.47.969a12.839 12.839 0 0 0-4.187 0 13.875 13.875 0 0 0-.468-.969C6.616.011 6.595 0 6.574 0c-1.292.23-2.542.615-3.75 1.156l-.031.032C1.626 2.958.834 4.717.418 6.468a16.003 16.003 0 0 0-.344 5.157c.02.02.031.042.031.063A15.619 15.619 0 0 0 4.7 14c.02 0 .042-.01.063-.031.354-.48.666-.99.937-1.531.02-.021.01-.042-.031-.063-.5-.188-.98-.417-1.438-.688-.041-.041-.041-.072 0-.093.104-.084.198-.156.282-.219.02-.02.041-.031.062-.031 1.52.687 3.063 1.031 4.625 1.031 1.583 0 3.125-.344 4.625-1.031.02 0 .031.01.031.031.104.063.209.135.313.219.02.02.01.052-.031.094-.459.27-.928.5-1.407.687-.041.02-.052.042-.03.063a10.2 10.2 0 0 0 .937 1.53c0 .022.02.032.062.032a16.143 16.143 0 0 0 4.594-2.313v-.062c.333-3.938-.563-7.417-2.688-10.438ZM6.137 9.562A1.584 1.584 0 0 1 4.98 9c-.312-.354-.468-.792-.468-1.313 0-.52.156-.958.468-1.312a1.63 1.63 0 0 1 1.157-.531c.479.02.875.208 1.187.562.313.334.469.76.469 1.282 0 .52-.156.958-.469 1.312a1.614 1.614 0 0 1-1.187.563Zm6.125 0A1.584 1.584 0 0 1 11.105 9c-.312-.354-.479-.792-.5-1.313.021-.52.177-.958.47-1.312a1.66 1.66 0 0 1 1.187-.531c.479.02.875.208 1.187.562.292.334.448.76.469 1.282-.021.52-.188.958-.5 1.312-.292.354-.677.542-1.156.563Z"/>
</svg>
