<svg xmlns="http://www.w3.org/2000/svg" width="20" height="20" fill="none" viewBox="0 0 20 20">
  <path fill="#26FFE0" d="M6.484 16.008c-.026.104-.09.156-.195.156-.156 0-.234-.052-.234-.156.026-.078.09-.117.195-.117.13 0 .208.039.234.117Zm-1.21-.156c-.027.078.025.143.156.195.13.026.208 0 .234-.078.026-.104-.026-.17-.156-.196-.13-.026-.209 0-.235.079Zm1.718-.079c-.13.027-.195.092-.195.196.026.078.104.117.234.117.13-.052.196-.117.196-.195-.026-.079-.105-.118-.235-.118ZM9.57.813c-2.786.052-5.065.963-6.836 2.734C.964 5.317.052 7.583 0 10.344c.026 2.213.638 4.153 1.836 5.82 1.198 1.667 2.8 2.839 4.805 3.516.468.026.69-.13.664-.47v-2.381c-.052 0-.3.026-.742.078a4.973 4.973 0 0 1-1.485-.156c-.52-.156-.885-.52-1.094-1.094 0-.052-.104-.26-.312-.625a2.62 2.62 0 0 0-.781-.82c-.052-.026-.157-.13-.313-.313-.182-.156-.052-.247.39-.273.027-.026.21.026.548.156.338.104.65.39.937.86.469.703.977 1.054 1.524 1.054.572 0 1.015-.078 1.328-.234.104-.625.312-1.068.625-1.328-1.146-.052-2.149-.339-3.008-.86-.86-.494-1.315-1.653-1.367-3.476 0-.521.078-.95.234-1.29.13-.338.352-.663.664-.976-.052-.156-.104-.468-.156-.937-.052-.469.039-1.042.273-1.719.47-.078 1.016.065 1.64.43.652.338 1.004.547 1.056.625a8.519 8.519 0 0 1 2.46-.352c.834 0 1.654.117 2.461.352 0-.026.17-.144.508-.352a5.42 5.42 0 0 1 1.094-.547c.417-.182.781-.234 1.094-.156.234.677.325 1.25.273 1.719-.052.468-.117.781-.195.937.312.313.56.638.742.977.182.338.274.768.274 1.289-.027 1.25-.248 2.174-.665 2.773a3.31 3.31 0 0 1-1.68 1.172 9.51 9.51 0 0 1-2.148.39c.417.287.638.886.664 1.798v3.279c-.026.338.196.495.665.469 1.979-.677 3.567-1.85 4.765-3.516 1.172-1.667 1.771-3.607 1.797-5.82-.026-1.823-.469-3.45-1.328-4.883a9.77 9.77 0 0 0-3.516-3.399C13.047 1.256 11.393.84 9.571.813ZM3.79 14.289c-.053.052-.04.117.038.195.078.079.143.091.195.04.053-.053.04-.118-.039-.196-.052-.078-.117-.091-.195-.039Zm-.43-.312c0 .052.038.104.117.156.078.026.13.013.156-.04.026-.051 0-.103-.078-.155-.078-.027-.144-.014-.196.039Zm1.288 1.367c-.052.078-.039.169.04.273.104.078.195.091.273.04.026-.079 0-.17-.078-.274-.104-.078-.182-.091-.235-.04Zm-.468-.547c-.052.052-.052.13 0 .234.078.078.156.104.234.078.052-.052.052-.13 0-.234-.078-.104-.156-.13-.234-.078Z"/>
</svg>
