<svg width="12" height="13" viewBox="0 0 12 13" fill="none" xmlns="http://www.w3.org/2000/svg">
<path d="M6 0.5C4.875 0.515625 3.86719 0.789062 2.97656 1.32031C2.07031 1.85156 1.35156 2.57031 0.820312 3.47656C0.289062 4.36719 0.015625 5.375 0 6.5C0.015625 7.625 0.289062 8.63281 0.820312 9.52344C1.35156 10.4297 2.07031 11.1484 2.97656 11.6797C3.86719 12.2109 4.875 12.4844 6 12.5C7.125 12.4844 8.13281 12.2109 9.02344 11.6797C9.92969 11.1484 10.6484 10.4297 11.1797 9.52344C11.7109 8.63281 11.9844 7.625 12 6.5C11.9844 5.375 11.7109 4.36719 11.1797 3.47656C10.6484 2.57031 9.92969 1.85156 9.02344 1.32031C8.13281 0.789062 7.125 0.515625 6 0.5ZM6 9.875C5.78125 9.875 5.60156 9.80469 5.46094 9.66406C5.32031 9.52344 5.25 9.34375 5.25 9.125C5.28125 8.67188 5.53125 8.42188 6 8.375C6.20312 8.375 6.375 8.44531 6.51562 8.58594C6.67188 8.72656 6.75 8.90625 6.75 9.125C6.75 9.34375 6.67188 9.52344 6.51562 9.66406C6.375 9.80469 6.20312 9.875 6 9.875ZM7.61719 6.54688L6.5625 7.20312V7.25C6.53125 7.59375 6.34375 7.78125 6 7.8125C5.65625 7.78125 5.46875 7.59375 5.4375 7.25V6.875C5.4375 6.67188 5.53125 6.50781 5.71875 6.38281L7.05469 5.58594C7.22656 5.49219 7.3125 5.34375 7.3125 5.14062C7.28125 4.82812 7.10156 4.65625 6.77344 4.625H5.57812C5.25 4.65625 5.07812 4.82812 5.0625 5.14062C5.03125 5.48438 4.84375 5.67188 4.5 5.70312C4.15625 5.67188 3.96875 5.48438 3.9375 5.14062C3.95312 4.67188 4.10938 4.28125 4.40625 3.96875C4.71875 3.67187 5.10156 3.51563 5.55469 3.5H6.75C7.23438 3.51563 7.63281 3.67187 7.94531 3.96875C8.25781 4.28125 8.42188 4.67188 8.4375 5.14062C8.42188 5.73438 8.14844 6.20312 7.61719 6.54688Z" fill="#797979"/>
</svg>
