<svg xmlns="http://www.w3.org/2000/svg" width="20" height="17" fill="none" viewBox="0 0 20 17">
  <path fill="#26FFE0" d="M17.93 4.438a3.6 3.6 0 0 1 .039.507c0 1.85-.456 3.66-1.367 5.43-.886 1.77-2.201 3.242-3.946 4.414-1.719 1.172-3.84 1.784-6.367 1.836-2.344-.026-4.44-.638-6.289-1.836.313.026.638.04.977.04 1.953-.027 3.658-.613 5.117-1.759-.938-.026-1.745-.3-2.422-.82a4.015 4.015 0 0 1-1.406-1.992c.234.026.481.039.742.039.39 0 .755-.04 1.094-.117-.964-.209-1.745-.677-2.344-1.407-.6-.729-.912-1.601-.938-2.617v-.078a4.318 4.318 0 0 0 1.836.547C1.51 5.818.898 4.672.82 3.187a4.34 4.34 0 0 1 .586-2.07 11.594 11.594 0 0 0 3.711 3.008c1.432.755 3.008 1.185 4.727 1.29a5.694 5.694 0 0 1-.078-.938c.026-1.146.416-2.11 1.171-2.891C11.72.805 12.683.4 13.829.375c1.224.026 2.227.456 3.008 1.29a8.345 8.345 0 0 0 2.617-.978 4.304 4.304 0 0 1-1.797 2.266A8.297 8.297 0 0 0 20 2.29a9.015 9.015 0 0 1-2.07 2.148Z"/>
</svg>
