<svg width="179" height="34" viewBox="0 0 179 34" fill="none" xmlns="http://www.w3.org/2000/svg">
<path d="M7.21446 31.732C8.67082 32.7052 10.2807 33.4675 11.9998 33.9746L15.7229 30.2494C16.4042 29.5678 17.5105 29.5678 18.1918 30.2494L21.9403 34C23.665 33.4995 25.2804 32.7439 26.7433 31.7751L21.7052 26.7342C19.0873 24.1149 14.8275 24.1149 12.2096 26.7342L7.21446 31.732Z" fill="#ff3d00"/>
<path d="M31.7914 26.7088L26.761 21.6746C24.1431 19.0564 24.1431 14.7944 26.761 12.1751L31.7152 7.21823C32.688 8.67536 33.4498 10.286 33.9566 12.0061L30.2743 15.6903C29.5942 16.3708 29.5942 17.4789 30.2743 18.1605L34.0008 21.8889L31.7914 26.7088Z" fill="#ff3d00"/>
<path d="M7.33036 2.23485L12.2095 7.11661C13.5191 8.42571 15.2382 9.08081 16.9573 9.08081C18.6765 9.08081 20.3956 8.42571 21.7051 7.11661L26.6274 2.19177C25.1523 1.23176 23.5259 0.487182 21.7913 0L18.1918 3.60139C17.5116 4.2819 16.4042 4.2819 15.7229 3.60139L12.1477 0.0243039C10.4186 0.519219 8.79776 1.27043 7.33036 2.23485Z" fill="#ff3d00"/>
<path d="M-1.23978e-05 21.8028L3.64033 18.1605C4.32048 17.4789 4.32048 16.3708 3.64033 15.6903L0.043047 12.0912C0.543221 10.3656 1.29845 8.74937 2.26678 7.28561L7.15369 12.1751C9.7716 14.7944 9.7716 19.0564 7.15369 21.6757L2.1906 26.6414L-1.23978e-05 21.8028Z" fill="#ff3d00"/>
<path d="M16.9574 21.3852C14.5182 21.3852 12.5409 19.4068 12.5409 16.9663C12.5409 14.5258 14.5182 12.5474 16.9574 12.5474C19.3966 12.5474 21.374 14.5258 21.374 16.9663C21.374 19.4068 19.3966 21.3852 16.9574 21.3852Z" fill="#ff3d00"/>
<path d="M53.4007 16.6208C54.623 17.1167 55.4087 18.2833 55.4087 19.8V23.8542C55.4087 25.8958 53.9536 27.3542 51.9165 27.3542H44.0009V6.64583H51.6837C53.7208 6.64583 55.1759 8.10417 55.1759 10.1458V13.5292C55.1759 14.9292 54.4775 16.0667 53.4007 16.6208ZM50.6069 9.59167H47.6386V15.3083H50.6069C51.2763 15.3083 51.6255 14.9292 51.6255 14.2875V10.5833C51.6255 9.97083 51.2763 9.59167 50.6069 9.59167ZM51.771 23.4167V19.0125C51.771 18.4 51.4218 18.05 50.7815 18.05H47.6386V24.4083H50.7815C51.4218 24.4083 51.771 24.0292 51.771 23.4167Z" fill="#ff3d00"/>
<path d="M67.6119 9.59167H61.7915V15.5417H67.0589V18.4875H61.7915V27.3542H58.1538V6.64583H67.6119V9.59167Z" fill="#ff3d00"/>
<path d="M77.8325 6.64583C79.8696 6.64583 81.3538 8.10417 81.3538 10.1458V16.7958C81.3538 18.8083 79.8696 20.2667 77.8325 20.2667H73.6709V27.3542H70.0332V6.64583H77.8325ZM77.7161 16.3V10.5833C77.7161 9.97083 77.3668 9.59167 76.7266 9.59167H73.6709V17.3208H76.7266C77.3668 17.3208 77.7161 16.9417 77.7161 16.3Z" fill="#ff3d00"/>
<path d="M87.1045 27.5C85.0965 27.5 83.6123 26.0417 83.6123 24V10C83.6123 7.95833 85.0965 6.5 87.1045 6.5H91.528C93.5651 6.5 95.0493 7.95833 95.0493 10V24C95.0493 26.0417 93.5651 27.5 91.528 27.5H87.1045ZM88.2395 24.5542H90.393C91.0333 24.5542 91.4116 24.175 91.4116 23.5333V10.4667C91.4116 9.825 91.0333 9.44583 90.393 9.44583H88.2395C87.6284 9.44583 87.2501 9.825 87.2501 10.4667V23.5333C87.2501 24.175 87.6284 24.5542 88.2395 24.5542Z" fill="#ff3d00"/>
<path d="M106.967 17.4083C108.393 17.7875 109.179 18.8375 109.179 20.4417V27.3542H105.541V19.8C105.541 19.1875 105.192 18.8083 104.551 18.8083H101.408V27.3542H97.7708V6.64583H105.599C107.636 6.64583 109.091 8.10417 109.12 10.1458L109.15 14.2C109.179 15.7458 108.276 16.9417 106.967 17.4083ZM104.493 9.59167H101.408V15.8625H104.493C105.133 15.8625 105.512 15.4833 105.512 14.8708V10.5833C105.512 9.97083 105.133 9.59167 104.493 9.59167Z" fill="#ff3d00"/>
<path d="M122.055 6.64583V9.59167H118.272V27.3542H114.634V9.59167H110.88V6.64583H122.055Z" fill="#ff3d00"/>
<path d="M130.82 27.3542L130.267 23.5917H125.901L125.348 27.3542H121.653L125.203 6.64583H130.936L134.457 27.3542H130.82ZM126.309 20.7042H129.83L128.666 12.975L128.113 9.53333H128.026L127.444 12.975L126.309 20.7042Z" fill="#ff3d00"/>
<path d="M140.287 24.4083H145.554V27.3542H136.649V6.64583H140.287V24.4083Z" fill="#ff3d00"/>
<path d="M147.702 27.3542V23.8542H151.107V27.3542H147.702Z" fill="#ff3d00"/>
<path d="M165.018 13.5292H161.381V10.4667C161.381 9.825 161.002 9.44583 160.362 9.44583H158.209C157.597 9.44583 157.219 9.825 157.219 10.4667V23.5333C157.219 24.175 157.597 24.5542 158.209 24.5542H160.508C161.119 24.5542 161.497 24.175 161.497 23.5333V19.0417H158.994V16.0958H165.018V27.3542H163.127L162.748 25.8375C162.37 26.8875 161.555 27.5 160.071 27.5H157.074C155.066 27.5 153.581 26.0417 153.581 24V10C153.581 7.95833 155.066 6.5 157.074 6.5H161.497C163.534 6.5 165.018 7.95833 165.018 10V13.5292Z" fill="#ff3d00"/>
<path d="M179.001 13.5292H175.363V10.4667C175.363 9.825 174.985 9.44583 174.345 9.44583H172.191C171.58 9.44583 171.202 9.825 171.202 10.4667V23.5333C171.202 24.175 171.58 24.5542 172.191 24.5542H174.49C175.101 24.5542 175.48 24.175 175.48 23.5333V19.0417H172.977V16.0958H179.001V27.3542H177.109L176.731 25.8375C176.353 26.8875 175.538 27.5 174.054 27.5H171.056C169.048 27.5 167.564 26.0417 167.564 24V10C167.564 7.95833 169.048 6.5 171.056 6.5H175.48C177.517 6.5 179.001 7.95833 179.001 10V13.5292Z" fill="#ff3d00"/>
</svg>
