<svg id="Calque_1" data-name="Calque 1" xmlns="http://www.w3.org/2000/svg" viewBox="0 0 167.11 198.71"><defs><style>.cls-1{fill:#26ffe0;stroke:#26ffe0;stroke-width:8px;fill-rule:evenodd;}</style></defs><path class="cls-1" d="M164.85,104.35,90,154.09a6,6,0,0,1-6.08,0L9,104.35a2.25,2.25,0,0,1,0-4l7.08-4.7a6,6,0,0,1,6.08,0L87,138.53,151.7,95.61a6,6,0,0,1,6.07,0l7.08,4.7A2.25,2.25,0,0,1,164.85,104.35Zm0-42.42L90,111.67a6,6,0,0,1-6.08,0L9,61.93a2.57,2.57,0,0,1-1.2-1.65,2.25,2.25,0,0,1,.36-3.74L83.07,6.8a28,28,0,0,1,6.07,0L164,56.54a2.62,2.62,0,0,1,1.21,1.65A2.2,2.2,0,0,1,164.85,61.93ZM86.11,22.36,30.89,59,87,96.11l55.21-36.6ZM9,143.27,16.12,138a6,6,0,0,1,6.08,0L87,181,151.7,138a6,6,0,0,1,6.07,0l7.08,5.24c1.68.58,1.68,2.39,0,4.38L90,196.51a6,6,0,0,1-6.08,0L9,147.65C7.36,145.66,7.36,143.85,9,143.27Z" transform="translate(-3 -2.63)"/></svg>
