<svg width="14" height="14" viewBox="0 0 14 14" fill="none" xmlns="http://www.w3.org/2000/svg">
<path d="M14 11C13.9792 11.8542 13.6875 12.5625 13.125 13.125C12.5625 13.6875 11.8542 13.9792 11 14C10.1458 13.9792 9.4375 13.6875 8.875 13.125C8.3125 12.5625 8.02083 11.8542 8 11C8 10.9167 8.01042 10.8229 8.03125 10.7188C8.03125 10.6979 8.03125 10.6667 8.03125 10.625L5.0625 9.15625C4.52083 9.69792 3.83333 9.97917 3 10C2.14583 9.97917 1.4375 9.6875 0.875 9.125C0.3125 8.5625 0.0208333 7.85417 0 7C0.0208333 6.14583 0.3125 5.4375 0.875 4.875C1.4375 4.3125 2.14583 4.02083 3 4C3.83333 4.02083 4.53125 4.30208 5.09375 4.84375L8.03125 3.375C8.03125 3.35417 8.03125 3.33333 8.03125 3.3125C8.01042 3.1875 8 3.08333 8 3C8.02083 2.14583 8.3125 1.4375 8.875 0.875C9.4375 0.3125 10.1458 0.0208333 11 0C11.8542 0.0208333 12.5625 0.3125 13.125 0.875C13.6875 1.4375 13.9792 2.14583 14 3C13.9792 3.85417 13.6875 4.5625 13.125 5.125C12.5625 5.6875 11.8542 5.97917 11 6C10.1667 5.97917 9.47917 5.69792 8.9375 5.15625L5.96875 6.625C5.96875 6.66667 5.96875 6.69792 5.96875 6.71875C5.98958 6.80208 6 6.89583 6 7C6 7.10417 5.98958 7.19792 5.96875 7.28125C5.96875 7.30208 5.96875 7.33333 5.96875 7.375L8.90625 8.84375C9.46875 8.30208 10.1667 8.02083 11 8C11.8542 8.02083 12.5625 8.3125 13.125 8.875C13.6875 9.4375 13.9792 10.1458 14 11Z" fill="#26FFE0"/>
</svg>
