<svg width="16" height="14" viewBox="0 0 16 14" fill="none" xmlns="http://www.w3.org/2000/svg">
<path d="M13.9688 0H1.96875C1.42708 0.0208333 0.96875 0.21875 0.59375 0.59375C0.21875 0.96875 0.0208333 1.4375 0 2V12C0.0208333 12.5625 0.21875 13.0312 0.59375 13.4062C0.96875 13.7812 1.42708 13.9792 1.96875 14H13.9688C14.5312 13.9792 15 13.7812 15.375 13.4062C15.75 13.0312 15.9479 12.5625 15.9688 12V2C15.9479 1.4375 15.7604 0.96875 15.4062 0.59375C15.0312 0.21875 14.5521 0.0208333 13.9688 0ZM3.46875 2C3.88542 2.02083 4.23958 2.16667 4.53125 2.4375C4.82292 2.72917 4.96875 3.08333 4.96875 3.5C4.96875 3.91667 4.82292 4.27083 4.53125 4.5625C4.26042 4.83333 3.90625 4.97917 3.46875 5C3.03125 4.97917 2.67708 4.83333 2.40625 4.5625C2.13542 4.27083 1.98958 3.91667 1.96875 3.5C1.98958 3.08333 2.13542 2.72917 2.40625 2.4375C2.69792 2.16667 3.05208 2.02083 3.46875 2ZM13.9375 11.75C13.8333 11.9167 13.6875 12 13.5 12H2.5625C2.35417 12 2.20833 11.9062 2.125 11.7188C2.04167 11.5521 2.05208 11.3854 2.15625 11.2188L4.34375 8.21875C4.44792 8.07292 4.58333 8 4.75 8C4.91667 8 5.05208 8.07292 5.15625 8.21875L6.15625 9.59375L9.09375 5.25C9.19792 5.08333 9.33333 5 9.5 5C9.66667 5 9.80208 5.07292 9.90625 5.21875L13.9062 11.2188C14.0104 11.3854 14.0208 11.5625 13.9375 11.75Z" fill="#26FFE0"/>
</svg>
