<svg width="20" height="16" viewBox="0 0 20 16" fill="none" xmlns="http://www.w3.org/2000/svg">
<path d="M6.96875 8C8.09375 7.97917 9.04167 7.59375 9.8125 6.84375C10.5625 6.07292 10.9479 5.125 10.9688 4C10.9479 2.875 10.5625 1.92708 9.8125 1.15625C9.04167 0.40625 8.09375 0.0208333 6.96875 0C5.84375 0.0208333 4.90625 0.40625 4.15625 1.15625C3.40625 1.92708 3.02083 2.875 3 4C3.02083 5.125 3.40625 6.07292 4.15625 6.84375C4.90625 7.59375 5.84375 7.97917 6.96875 8ZM8.59375 9.5H5.40625C3.88542 9.54167 2.61458 10.0729 1.59375 11.0938C0.572917 12.1146 0.0416667 13.3854 0 14.9062C0 15.2188 0.104167 15.4792 0.3125 15.6875C0.520833 15.8958 0.78125 16 1.09375 16H10.0312C9.98958 15.8333 9.98958 15.6562 10.0312 15.4688L10.4688 13.25C10.5312 12.9375 10.6771 12.6667 10.9062 12.4375L12.3125 11C11.3125 10.0417 10.0729 9.54167 8.59375 9.5ZM11.5938 13.1562C11.5312 13.2188 11.4792 13.3125 11.4375 13.4375L11 15.6562C11 15.8854 11.1146 16 11.3438 16L13.5625 15.5625C13.6875 15.5208 13.7812 15.4688 13.8438 15.4062L17.7812 11.4688L15.5312 9.21875L11.5938 13.1562ZM19.6875 8L19 7.34375C18.7708 7.11458 18.5104 7 18.2188 7C17.9271 7 17.6562 7.11458 17.4062 7.34375L16.2188 8.53125L18.4688 10.7812L19.6875 9.59375C19.8958 9.34375 20 9.07292 20 8.78125C20 8.48958 19.8958 8.22917 19.6875 8Z" fill="#26FFE0"/>
</svg>
