<svg width="17" height="17" viewBox="0 0 17 17" fill="none" xmlns="http://www.w3.org/2000/svg">
<path d="M16.5625 2.3125L14.6875 0.4375C14.375 0.145833 14.0208 0 13.625 0C13.2292 0 12.875 0.145833 12.5625 0.4375L10.7812 2.21875L14.75 6.21875L16.5312 4.4375C16.8438 4.125 17 3.77083 17 3.375C17 2.97917 16.8542 2.625 16.5625 2.3125ZM10.0938 2.90625L1.96875 11.0312C1.90625 11.0938 1.86458 11.1771 1.84375 11.2812L1 15.4062C0.979167 15.5938 1.03125 15.7396 1.15625 15.8438C1.26042 15.9688 1.40625 16.0208 1.59375 16L5.71875 15.1562C5.82292 15.1354 5.90625 15.0938 5.96875 15.0312L14.0938 6.90625L10.0938 2.90625Z" fill="#26FFE0"/>
</svg>
