<svg width="21" height="16" viewBox="0 0 21 16" fill="none" xmlns="http://www.w3.org/2000/svg">
<path d="M18.7188 1.28125C17.7812 0.427083 16.7396 0 15.5938 0C14.4062 0 13.3646 0.427083 12.4688 1.28125L11.0938 2.65625C11.5729 2.88542 12.0104 3.19792 12.4062 3.59375C12.4896 3.67708 12.5625 3.76042 12.625 3.84375C12.6458 3.86458 12.6667 3.88542 12.6875 3.90625L13.875 2.71875C14.3333 2.23958 14.9062 2 15.5938 2C16.2604 2 16.8229 2.23958 17.2812 2.71875C17.7604 3.17708 18 3.73958 18 4.40625C18 5.07292 17.7604 5.64583 17.2812 6.125L13.125 10.2812C12.6458 10.7396 12.0729 10.9792 11.4062 11C10.7604 11 10.1979 10.7604 9.71875 10.2812C9.23958 9.82292 8.98958 9.26042 8.96875 8.59375C8.96875 7.92708 9.20833 7.35417 9.6875 6.875L9.8125 6.75C9.75 6.625 9.67708 6.51042 9.59375 6.40625C9.30208 6.13542 8.96875 6 8.59375 6C8.19792 6 7.86458 6.13542 7.59375 6.40625C7.11458 7.28125 6.92708 8.19792 7.03125 9.15625C7.15625 10.1146 7.57292 10.9688 8.28125 11.7188C9.19792 12.5729 10.2396 13 11.4062 13C12.5938 13 13.6354 12.5729 14.5312 11.7188L18.7188 7.53125C19.5938 6.59375 20.0208 5.52083 20 4.3125C19.9792 3.16667 19.5521 2.15625 18.7188 1.28125ZM7.3125 12.0938L6.125 13.2812C5.64583 13.7396 5.07292 13.9792 4.40625 14C3.76042 14 3.19792 13.7604 2.71875 13.2812C2.23958 12.8229 2 12.2604 2 11.5938C2 10.9271 2.23958 10.3542 2.71875 9.875L6.875 5.71875C7.33333 5.23958 7.90625 5 8.59375 5C9.26042 5 9.82292 5.23958 10.2812 5.71875C10.7604 6.17708 11 6.73958 11 7.40625C11 8.07292 10.7604 8.64583 10.2812 9.125L10.1875 9.25C10.25 9.375 10.3229 9.48958 10.4062 9.59375C10.6979 9.86458 11.0312 10 11.4062 10C11.8021 10 12.1354 9.86458 12.4062 9.59375C12.8854 8.71875 13.0729 7.80208 12.9688 6.84375C12.8438 5.88542 12.4271 5.03125 11.7188 4.28125C10.7812 3.42708 9.73958 3 8.59375 3C7.40625 3 6.36458 3.42708 5.46875 4.28125L1.28125 8.46875C0.427083 9.36458 0 10.4062 0 11.5938C0 12.7604 0.427083 13.8021 1.28125 14.7188C2.19792 15.5729 3.23958 16 4.40625 16C5.59375 16 6.63542 15.5729 7.53125 14.7188L8.90625 13.3438C8.42708 13.1146 7.98958 12.8021 7.59375 12.4062C7.51042 12.3438 7.4375 12.2708 7.375 12.1875C7.35417 12.1667 7.33333 12.1354 7.3125 12.0938Z" fill="#26FFE0"/>
</svg>
