<svg width="20" height="16" viewBox="0 0 20 16" fill="none" xmlns="http://www.w3.org/2000/svg">
<path d="M0.28125 7.28125C0.09375 7.48958 0 7.72917 0 8V12C0 12.2708 0.09375 12.5104 0.28125 12.7188C0.489583 12.9062 0.729167 13 1 13H2V7H1C0.729167 7 0.489583 7.09375 0.28125 7.28125ZM14.5 3H11V1C11 0.708333 10.9062 0.46875 10.7188 0.28125C10.5312 0.09375 10.2917 0 10 0C9.70833 0 9.46875 0.09375 9.28125 0.28125C9.09375 0.46875 9 0.708333 9 1V3H5.5C4.79167 3.02083 4.19792 3.26042 3.71875 3.71875C3.26042 4.19792 3.02083 4.79167 3 5.5V14C3.02083 14.5625 3.21875 15.0312 3.59375 15.4062C3.96875 15.7812 4.4375 15.9792 5 16H15C15.5625 15.9792 16.0312 15.7812 16.4062 15.4062C16.7812 15.0312 16.9792 14.5625 17 14V5.5C16.9792 4.79167 16.7396 4.19792 16.2812 3.71875C15.8021 3.26042 15.2083 3.02083 14.5 3ZM8 13H6V12H8V13ZM7 9.25C6.64583 9.25 6.35417 9.125 6.125 8.875C5.875 8.64583 5.75 8.35417 5.75 8C5.75 7.64583 5.875 7.35417 6.125 7.125C6.35417 6.875 6.64583 6.75 7 6.75C7.35417 6.75 7.64583 6.875 7.875 7.125C8.125 7.35417 8.25 7.64583 8.25 8C8.25 8.35417 8.125 8.64583 7.875 8.875C7.64583 9.125 7.35417 9.25 7 9.25ZM11 13H9V12H11V13ZM14 13H12V12H14V13ZM13 9.25C12.6458 9.25 12.3542 9.125 12.125 8.875C11.875 8.64583 11.75 8.35417 11.75 8C11.75 7.64583 11.875 7.35417 12.125 7.125C12.3542 6.875 12.6458 6.75 13 6.75C13.3542 6.75 13.6458 6.875 13.875 7.125C14.125 7.35417 14.25 7.64583 14.25 8C14.25 8.35417 14.125 8.64583 13.875 8.875C13.6458 9.125 13.3542 9.25 13 9.25ZM19.7188 7.28125C19.5104 7.09375 19.2708 7 19 7H18V13H19C19.2708 13 19.5104 12.9062 19.7188 12.7188C19.9062 12.5104 20 12.2708 20 12V8C20 7.72917 19.9062 7.48958 19.7188 7.28125Z" fill="#26FFE0"/>
</svg>
