<svg width="18" height="12" viewBox="0 0 18 12" fill="none" xmlns="http://www.w3.org/2000/svg">
<path d="M12 1.5V10.5C11.9792 10.9167 11.8333 11.2708 11.5625 11.5625C11.2708 11.8333 10.9167 11.9792 10.5 12H1.5C1.08333 11.9792 0.729167 11.8333 0.4375 11.5625C0.166667 11.2708 0.0208333 10.9167 0 10.5V1.5C0.0208333 1.08333 0.166667 0.729167 0.4375 0.4375C0.729167 0.166667 1.08333 0.0208333 1.5 0H10.5C10.9167 0.0208333 11.2708 0.166667 11.5625 0.4375C11.8333 0.729167 11.9792 1.08333 12 1.5ZM18 2V10C17.9792 10.4167 17.8021 10.7083 17.4688 10.875C17.1354 11.0625 16.7917 11.0417 16.4375 10.8125L13 8.46875V3.53125L16.4375 1.1875C16.7917 0.958333 17.1354 0.9375 17.4688 1.125C17.8021 1.29167 17.9792 1.58333 18 2Z" fill="#26FFE0"/>
</svg>
