<svg xmlns="http://www.w3.org/2000/svg" width="16" height="13" fill="none" viewBox="0 0 16 13">
  <path fill="#fff" d="M14.836 11.152 9.012 1.2C8.757.816 8.419.625 8 .625c-.42 0-.757.191-1.012.574l-5.824 9.953c-.219.401-.219.784 0 1.149.2.364.538.556 1.012.574h11.648c.474-.018.811-.21 1.012-.574.219-.365.219-.748 0-1.149ZM7.344 4.344c.036-.401.255-.62.656-.657.401.037.62.256.656.657v3.5c-.036.4-.246.62-.629.656a.633.633 0 0 1-.464-.191.596.596 0 0 1-.22-.465v-3.5ZM8 11.125a.818.818 0 0 1-.602-.246.818.818 0 0 1-.246-.602c0-.255.082-.464.246-.629A.818.818 0 0 1 8 9.402a.82.82 0 0 1 .602.246.852.852 0 0 1 .246.63.818.818 0 0 1-.246.6.818.818 0 0 1-.602.247Z"/>
</svg>
