<svg xmlns="http://www.w3.org/2000/svg" width="18" height="15" fill="none" viewBox="0 0 18 15">
  <path fill="#26FFE0" d="M15.438 1.969c-.75-.667-1.615-.99-2.594-.969-1.23.02-2.302.48-3.219 1.375L9 3l-.625-.625C7.458 1.479 6.385 1.021 5.156 1c-.958 0-1.833.323-2.625.969-.979.896-1.49 1.958-1.531 3.187-.042 1.25.375 2.344 1.25 3.282l6.031 6.25A.988.988 0 0 0 9 15c.27 0 .51-.104.719-.313l6.031-6.25c.875-.958 1.292-2.052 1.25-3.28-.063-1.23-.583-2.292-1.563-3.188Zm-.75 5.437L9 13.281 3.312 7.406c-.52-.562-.791-1.26-.812-2.093-.02-.834.313-1.573 1-2.22.667-.5 1.354-.687 2.063-.562.708.125 1.291.417 1.75.875L9 5.156l1.688-1.75c.437-.437 1.02-.729 1.75-.875.708-.146 1.395.042 2.062.563.688.646 1.02 1.385 1 2.219-.02.833-.292 1.53-.813 2.093Z"/>
</svg>
