<svg xmlns="http://www.w3.org/2000/svg" width="5" height="6" fill="none" viewBox="0 0 5 6">
  <path fill="#26FFE0" d="M3.6 3.8a.292.292 0 0 0-.216.084.292.292 0 0 0-.084.216V5H.6V2.3h.9c.087 0 .16-.028.216-.084A.292.292 0 0 0 1.8 2a.292.292 0 0 0-.084-.216A.292.292 0 0 0 1.5 1.7H.6a.606.606 0 0 0-.6.6V5a.606.606 0 0 0 .6.6h2.7a.606.606 0 0 0 .6-.6v-.9a.292.292 0 0 0-.084-.216A.292.292 0 0 0 3.6 3.8ZM4.716.884A.292.292 0 0 0 4.5.8H3a.262.262 0 0 0-.206.084.28.28 0 0 0-.085.207.26.26 0 0 0 .085.206.292.292 0 0 0 .215.084h.779l-2.11 2.147a.287.287 0 0 0-.094.206c0 .082.032.154.094.216a.302.302 0 0 0 .206.084.313.313 0 0 0 .216-.084l2.1-2.128V2.6c0 .087.028.156.084.206a.28.28 0 0 0 .207.085.313.313 0 0 0 .215-.085A.25.25 0 0 0 4.8 2.6V1.09a.302.302 0 0 0-.084-.206Z"/>
</svg>
