<svg xmlns="http://www.w3.org/2000/svg" width="20" height="16" fill="none" viewBox="0 0 20 16">
  <path fill="#26FFE0" d="M7 8c1.125-.02 2.073-.406 2.844-1.156C10.594 6.073 10.979 5.125 11 4c-.02-1.125-.406-2.073-1.156-2.844C9.073.406 8.125.021 7 0 5.875.02 4.927.406 4.156 1.156 3.406 1.927 3.021 2.875 3 4c.02 1.125.406 2.073 1.156 2.844C4.927 7.594 5.875 7.979 7 8Zm1.594 1.5H5.406c-1.52.042-2.791.573-3.812 1.594C.573 12.114.042 13.385 0 14.906c0 .313.104.573.313.781.208.209.468.313.78.313h11.813c.313 0 .573-.104.781-.313a1.06 1.06 0 0 0 .313-.78c-.042-1.522-.573-2.792-1.594-3.813-1.02-1.021-2.291-1.552-3.812-1.594Zm6.375.5h-2.313a6.619 6.619 0 0 1 1.719 2.156 6.19 6.19 0 0 1 .625 2.75c0 .417-.104.781-.313 1.094H19a.924.924 0 0 0 .719-.313.974.974 0 0 0 .281-.718c-.042-1.396-.531-2.563-1.469-3.5-.937-.938-2.125-1.427-3.562-1.469ZM13.5 8c1-.02 1.823-.365 2.469-1.031C16.635 6.323 16.979 5.5 17 4.5c-.02-1-.365-1.823-1.031-2.469C15.323 1.365 14.5 1.021 13.5 1a3.53 3.53 0 0 0-2.094.719A4.95 4.95 0 0 1 12 4c-.02 1.125-.354 2.115-1 2.969.667.666 1.5 1.01 2.5 1.031Z"/>
</svg>
