<svg xmlns="http://www.w3.org/2000/svg" width="18" height="16" fill="none" viewBox="0 0 18 16">
  <path fill="#26FFE0" d="M17.25 2H14V.75a.76.76 0 0 0-.75-.75h-8.5A.74.74 0 0 0 4 .75V2H.75a.74.74 0 0 0-.75.75V4.5c0 1.125.688 2.281 1.906 3.156 1 .719 2.188 1.157 3.438 1.313 1 1.625 2.156 2.281 2.156 2.281v2.25H6c-1.125 0-2 .656-2 1.75v.375a.36.36 0 0 0 .375.375h9.25a.38.38 0 0 0 .375-.375v-.375c0-1.094-.906-1.75-2-1.75h-1.5v-2.25s1.125-.656 2.125-2.281c1.25-.156 2.438-.594 3.438-1.313C17.28 6.781 18 5.625 18 4.5V2.75a.76.76 0 0 0-.75-.75ZM3.094 6.031C2.313 5.5 2 4.875 2 4.5V4h2c.031 1.031.188 1.938.406 2.719-.5-.188-.937-.407-1.312-.688ZM16 4.5c0 .531-.563 1.156-1.125 1.531-.375.282-.813.5-1.313.688.22-.782.376-1.688.407-2.719H16v.5Z"/>
</svg>
