<svg xmlns="http://www.w3.org/2000/svg" width="20" height="16" fill="none" viewBox="0 0 20 16">
  <path fill="#26FFE0" d="M10 10c.917-.02 1.677-.333 2.281-.938.604-.624.917-1.395.938-2.312-.021-.917-.334-1.688-.938-2.313-.625-.604-1.385-.916-2.281-.937-.917.02-1.677.333-2.281.938-.604.625-.917 1.395-.938 2.312 0 .917.302 1.688.907 2.313.625.604 1.395.916 2.312.937Zm1.563 1H8.437c-1.25.02-2.291.427-3.124 1.219-.834.791-1.271 1.77-1.313 2.937 0 .25.083.448.25.594.167.167.375.25.625.25h10.25c.25 0 .458-.083.625-.25.167-.146.25-.344.25-.594-.042-1.166-.48-2.146-1.313-2.937-.833-.792-1.874-1.198-3.124-1.219ZM16 5c.708-.02 1.302-.26 1.781-.719.459-.479.698-1.073.719-1.781-.02-.708-.26-1.302-.719-1.781C17.302.26 16.708.02 16 0c-.708.02-1.302.26-1.781.719-.459.479-.698 1.073-.719 1.781.02.708.26 1.302.719 1.781.479.459 1.073.698 1.781.719ZM5.75 6.75c0-.125.01-.25.031-.375 0-.042.01-.083.032-.125A2.61 2.61 0 0 0 4.688 6H2.75c-.77.02-1.417.302-1.938.844-.52.562-.791 1.25-.812 2.062.042.354.23.552.563.594H6.78c-.666-.77-1.01-1.688-1.031-2.75ZM4 5c.708-.02 1.302-.26 1.781-.719.459-.479.698-1.073.719-1.781-.02-.708-.26-1.302-.719-1.781C5.302.26 4.708.02 4 0c-.708.02-1.302.26-1.781.719C1.76 1.198 1.52 1.792 1.5 2.5c.02.708.26 1.302.719 1.781C2.698 4.74 3.292 4.98 4 5Zm13.25 1h-1.938c-.395 0-.77.083-1.124.25 0 .063.01.115.03.156.022.104.032.219.032.344-.02 1.063-.365 1.98-1.031 2.75h6.219c.333-.042.52-.24.562-.594-.02-.812-.292-1.5-.813-2.062-.52-.542-1.166-.823-1.937-.844Z"/>
</svg>
