<svg xmlns="http://www.w3.org/2000/svg" width="17" height="17" fill="none" viewBox="0 0 17 17">
  <path fill="#26FFE0" d="m16.719 5.281-5-5A1.043 1.043 0 0 0 11 0c-.27 0-.51.094-.719.281A1.043 1.043 0 0 0 10 1c0 .27.094.51.281.719l.219.218-8.469 8.47c-.604.624-.948 1.353-1.031 2.187-.063.854.188 1.614.75 2.281.667.75 1.48 1.125 2.438 1.125.854.02 1.614-.292 2.28-.938l8.595-8.593.218.25c.209.187.448.281.719.281.27 0 .51-.094.719-.281C16.906 6.51 17 6.27 17 6c0-.27-.094-.51-.281-.719Zm-6 2.719H7.25l4.688-4.656 1.718 1.719L10.72 8Z"/>
</svg>
