<svg xmlns="http://www.w3.org/2000/svg" width="16" height="16" fill="none" viewBox="0 0 16 16">
  <path fill="#26FFE0" d="M15 11h-4.156l-1.438 1.406A1.922 1.922 0 0 1 8 13a1.92 1.92 0 0 1-1.406-.594L5.187 11H1a.974.974 0 0 0-.719.281A.974.974 0 0 0 0 12v3c0 .292.094.531.281.719A.974.974 0 0 0 1 16h14a.974.974 0 0 0 .719-.281A.974.974 0 0 0 16 15v-3a.974.974 0 0 0-.281-.719A.974.974 0 0 0 15 11Zm-1.5 3.25c-.458-.042-.708-.292-.75-.75.042-.458.292-.708.75-.75.458.042.708.292.75.75-.042.458-.292.708-.75.75Zm-6.219-2.531c.209.187.448.281.719.281.27 0 .51-.094.719-.281l4-4C12.906 7.51 13 7.27 13 7c0-.27-.094-.51-.281-.719A1.043 1.043 0 0 0 12 6c-.27 0-.51.094-.719.281L9 8.594V1a.973.973 0 0 0-.281-.719A.973.973 0 0 0 8 0a.973.973 0 0 0-.719.281A.973.973 0 0 0 7 1v7.594L4.719 6.28A1.043 1.043 0 0 0 4 6c-.27 0-.51.094-.719.281A1.043 1.043 0 0 0 3 7c0 .27.094.51.281.719l4 4Z"/>
</svg>
