<svg xmlns="http://www.w3.org/2000/svg" fill="none" viewBox="0 0 14 16">
  <path fill="#26FFE0" d="M10.125 1.594a16.558 16.558 0 0 0-1.781 1.875C7.49 2.28 6.458 1.125 5.25 0 3.687 1.48 2.427 3.02 1.469 4.625.51 6.25.02 7.645 0 8.813c.02 1.333.344 2.541.969 3.624a6.946 6.946 0 0 0 2.5 2.594C4.51 15.656 5.688 15.98 7 16c1.313-.02 2.49-.344 3.531-.969a6.945 6.945 0 0 0 2.5-2.594c.625-1.083.948-2.291.969-3.624-.02-.896-.385-2.042-1.094-3.438a14.415 14.415 0 0 0-2.781-3.781ZM9.5 12.25c-.688.48-1.49.73-2.406.75-1.167-.02-2.136-.375-2.907-1.063-.77-.687-1.166-1.635-1.187-2.843 0-.584.188-1.188.563-1.813C3.937 6.656 4.51 5.896 5.28 5c.104.125.396.5.875 1.125.5.625.98 1.23 1.438 1.813.479.604.74.927.781.968l1.813-2.062c.124.208.24.406.343.593.438.855.573 1.73.406 2.625-.187.896-.666 1.626-1.437 2.188Z"/>
</svg>
