<svg xmlns="http://www.w3.org/2000/svg" width="17" height="17" fill="none" viewBox="0 0 17 17">
  <path fill="#26FFE0" d="m4.438 7.625 4.187-4.188L7.25 2.032 5.312 3.97l-.03.03a.277.277 0 0 1-.126.031c-.083 0-.146-.02-.187-.062l-.344-.344c-.104-.125-.104-.24 0-.344l1.938-1.937L5.5.28A1.043 1.043 0 0 0 4.781 0c-.25 0-.479.094-.687.281L1.28 3.094A1.006 1.006 0 0 0 1 3.78c0 .271.094.51.281.719l3.157 3.125Zm12.125-3.656c.291-.313.437-.667.437-1.063 0-.396-.146-.75-.438-1.062L15.156.437C14.844.147 14.49 0 14.094 0c-.417 0-.771.146-1.063.438l-1.406 1.437 3.531 3.531 1.406-1.437Zm-.907 6.5-1.937 1.906c-.104.104-.219.104-.344 0l-.344-.344c-.104-.125-.104-.24 0-.344L14.97 9.75l-1.375-1.375-4.219 4.219 3.125 3.125c.208.187.448.281.719.281.25 0 .479-.094.687-.281l2.813-2.813c.187-.208.281-.437.281-.687 0-.271-.094-.51-.281-.719l-1.063-1.031Zm-4.781-7.875-9.063 9.062c-.145.146-.24.323-.28.531L1 15.22a.76.76 0 0 0 .188.594.76.76 0 0 0 .593.187l3.032-.531a1.2 1.2 0 0 0 .562-.281l9.031-9.063-3.531-3.531Z"/>
</svg>
