<svg xmlns="http://www.w3.org/2000/svg" width="14" height="16" fill="none" viewBox="0 0 14 16">
  <path fill="#26FFE0" d="M7 8c1.125-.02 2.073-.406 2.844-1.156C10.594 6.073 10.979 5.125 11 4c-.02-1.125-.406-2.073-1.156-2.844C9.073.406 8.125.021 7 0 5.875.02 4.927.406 4.156 1.156 3.406 1.927 3.021 2.875 3 4c.02 1.125.406 2.073 1.156 2.844C4.927 7.594 5.875 7.979 7 8Zm1.594 1.5H5.406c-1.52.042-2.791.573-3.812 1.594C.573 12.114.042 13.385 0 14.906c0 .313.104.573.313.781.208.209.468.313.78.313h11.813c.313 0 .573-.104.781-.313a1.06 1.06 0 0 0 .313-.78c-.042-1.522-.573-2.792-1.594-3.813-1.02-1.021-2.291-1.552-3.812-1.594Z"/>
</svg>
