<svg xmlns="http://www.w3.org/2000/svg" width="14" height="14" fill="none" viewBox="0 0 14 14">
  <path fill="#26FFE0" d="M12 0H2C1.437.02.969.219.594.594S.02 1.438 0 2v10c.02.563.219 1.031.594 1.406S1.438 13.98 2 14h10c.563-.02 1.031-.219 1.406-.594S13.98 12.562 14 12V2c-.02-.563-.219-1.031-.594-1.406S12.562.02 12 0Zm-1.375 5.625-4 4a.919.919 0 0 1-.625.25.919.919 0 0 1-.625-.25l-2-2A.919.919 0 0 1 3.125 7c0-.23.083-.438.25-.625A.919.919 0 0 1 4 6.125c.23 0 .438.083.625.25L6 7.75l3.375-3.375a.919.919 0 0 1 .625-.25c.23 0 .438.083.625.25.167.188.25.396.25.625 0 .23-.083.438-.25.625Z"/>
</svg>
