<svg xmlns="http://www.w3.org/2000/svg" width="14" height="16" fill="none" viewBox="0 0 14 16">
  <path fill="#26FFE0" d="M12.5 2H11V.969c0-.271-.094-.5-.281-.688A.974.974 0 0 0 10 0a.973.973 0 0 0-.719.281A.935.935 0 0 0 9 .97V2H5V.969c0-.271-.094-.5-.281-.688A.973.973 0 0 0 4 0a.973.973 0 0 0-.719.281A.935.935 0 0 0 3 .97V2H1.5a1.63 1.63 0 0 0-1.063.438A1.63 1.63 0 0 0 0 3.5V5h14V3.5a1.63 1.63 0 0 0-.438-1.063A1.63 1.63 0 0 0 12.5 2ZM0 14.5c.02.417.167.77.438 1.063.291.27.645.416 1.062.437h11a1.63 1.63 0 0 0 1.063-.438A1.63 1.63 0 0 0 14 14.5V6H0v8.5Z"/>
</svg>
