<svg xmlns="http://www.w3.org/2000/svg" width="20" height="12" fill="none" viewBox="0 0 20 12">
  <path fill="#26FFE0" d="M18 0H1.969C1.427.02.969.219.594.594S.02 1.438 0 2v8c.02.563.219 1.031.594 1.406s.833.573 1.375.594H18c.563-.02 1.031-.219 1.406-.594S19.98 10.562 20 10V2c-.02-.563-.219-1.031-.594-1.406S18.563.02 18 0Zm0 10H1.969V2H18v8ZM3.406 8.875c.438.167.771.063 1-.313l.188-.343h2.812l.188.344c.146.27.364.406.656.406.125 0 .24-.031.344-.094.375-.23.479-.563.312-1l-2.219-4.5A.712.712 0 0 0 6.032 3a.784.784 0 0 0-.687.375l-2.219 4.5c-.208.438-.115.77.281 1ZM6 5.406l.656 1.313H5.344L6 5.406ZM10.75 9h2.125c.52-.02.958-.208 1.313-.563.354-.354.541-.791.562-1.312-.02-.604-.25-1.083-.688-1.438.126-.27.188-.541.188-.812a1.896 1.896 0 0 0-.563-1.313A1.897 1.897 0 0 0 12.376 3H10.75c-.458.042-.708.292-.75.75v4.5c.042.458.292.708.75.75Zm.75-4.5h.875c.23.02.354.146.375.375-.02.23-.146.354-.375.375H11.5V4.5Zm0 2.25h1.375c.23.02.354.146.375.375-.02.23-.146.354-.375.375H11.5v-.75Z"/>
</svg>
