<svg xmlns="http://www.w3.org/2000/svg" width="14" height="14" fill="none" viewBox="0 0 14 14">
  <path fill="#26FFE0" d="M0 .875C0 .625.083.417.25.25A.848.848 0 0 1 .875 0h5.844c.208 0 .427.052.656.156.23.084.417.198.563.344L13.5 6.063c.333.354.5.76.5 1.218 0 .48-.167.896-.5 1.25L8.531 13.5c-.354.333-.77.5-1.25.5-.458 0-.864-.167-1.218-.5L.5 7.937a1.512 1.512 0 0 1-.344-.562A1.586 1.586 0 0 1 0 6.719V.875ZM2.5 3.5c0 .292.094.531.281.719A.973.973 0 0 0 3.5 4.5a.973.973 0 0 0 .719-.281A.973.973 0 0 0 4.5 3.5a.973.973 0 0 0-.281-.719A.973.973 0 0 0 3.5 2.5a.973.973 0 0 0-.719.281.973.973 0 0 0-.281.719Z"/>
</svg>
